<svg width="90" height="90" fill="none" xmlns="http://www.w3.org/2000/svg"><path d="M73.82 37.28H13.71v43.6h60.11v-43.6z" fill="#543426"/><path d="M22.08 38.05H11.66v39.41h10.42V38.05zM60.27 38.05H49.85v39.41h10.42V38.05zM41.18 38.05H30.76v39.41h10.42V38.05zM79.37 38.05H68.95v39.41h10.42V38.05z" fill="#9D6C3E"/><path d="M6.56 74.58c-1.1 0-2 .9-2 2V83c0 1.1.9 2 2 2h76.88c1.1 0 2-.9 2-2v-6.42c0-1.1-.9-2-2-2H6.56z" fill="#CA9350"/><path d="M45.61 16.91 13.32 38.46h64.52L45.61 16.91z" fill="#9D6C3E"/><path d="M46.74 24.13c-.66-.43-1.51-.43-2.18 0L22.39 38.45h46.34l-22-14.32h.01z" fill="#CA9350"/><path d="M11.66 41.17v2.72h10.42v-5.44H11.66v2.72zM30.76 41.17v2.72h10.41v-5.44H30.76v2.72zM49.85 41.17v2.72h10.42v-5.44H49.85v2.72zM68.95 38.45v5.44h10.41v-5.44H68.95z" fill="#6A4632"/><path d="M22.08 71.87H11.66v2.72h10.42v-2.72zM41.18 71.87H30.76v2.72h10.42v-2.72zM60.27 71.87H49.85v2.72h10.42v-2.72zM79.37 71.87H68.95v2.72h10.42v-2.72z" fill="#CA9350"/><path d="M84.53 29.92 46.74 5.32c-.66-.43-1.51-.43-2.18 0L6.5 29.92c-.57.37-.91 1-.91 1.68v7.33c0 1.1.9 2 2 2h4.63c.41 0 .82-.12 1.16-.34l31.19-20.16c.66-.43 1.52-.43 2.18 0l30.96 20.15c.35.23.75.35 1.17.35h4.57c1.1 0 2-.9 2-2V31.6c0-.68-.34-1.31-.91-1.68h-.01z" fill="#4A4743"/></svg>