<?xml version="1.0" encoding="UTF-8"?>
<svg version="1.1" xmlns="http://www.w3.org/2000/svg" width="1287" height="330">
<path d="M0 0 C8.39174345 6.4580755 11.73712416 18.15150891 14 28 C14.19464844 28.78890625 14.38929688 29.5778125 14.58984375 30.390625 C16.0379244 36.7748638 16.42593056 43.16033406 16.75390625 49.6796875 C16.94929128 52.31583473 17.32920592 54.47497836 18 57 C18.3944623 62.85892528 17.82399865 68.69401303 17.21875 74.51953125 C16.94143465 77.2490733 16.94143465 77.2490733 17 81 C17.27972656 80.35933594 17.55945313 79.71867187 17.84765625 79.05859375 C21.32603333 71.55379947 25.09001652 66.33095169 32.25 62.0625 C37.2309216 60.65123888 41.86001144 60.74904215 47 61 C47.0825 60.21625 47.165 59.4325 47.25 58.625 C49.1683489 49.35298032 53.6479112 41.71724877 59 34 C59.41121094 33.40058594 59.82242188 32.80117187 60.24609375 32.18359375 C66.39816465 24.03050324 77.17283278 18.97180143 87 17 C90.5869742 16.69471039 94.15148779 16.66608211 97.75 16.6875 C98.73427979 16.69313965 99.71855957 16.6987793 100.73266602 16.70458984 C107.60600209 16.81976312 113.56993549 17.45476613 120 20 C121.175625 20.42539063 122.35125 20.85078125 123.5625 21.2890625 C133.88973065 25.12222807 143.46381414 29.9430088 152 37 C152.309375 35.2984375 152.309375 35.2984375 152.625 33.5625 C154.50522948 26.02824712 159.8072397 19.62549032 165 14 C165.66 14 166.32 14 167 14 C167 13.34 167 12.68 167 12 C170.65819201 8.58749578 173.45606133 8.48627761 178.27490234 8.63964844 C182.99058492 9.26322374 187.01960135 11.15411054 191.3125 13.125 C201.26569868 17.4518495 211.24146106 20.58213207 221.71289062 23.37548828 C224.93921863 24.25646042 228.12210717 25.24657 231.3125 26.25 C244.32083431 30.28075148 258.24905473 33.75584381 271.91796875 31.5234375 C279.10298412 30.37926501 279.10298412 30.37926501 281.953125 32.3515625 C288.40292994 39.70934969 290.50988688 49.0025941 290.25390625 58.64453125 C289.34350616 67.09024283 286.90971965 75.7122812 280.25 81.3125 C273.6983455 84.71432061 267.25451964 85.36365704 260 85.3125 C259.1747583 85.30831055 258.3495166 85.30412109 257.49926758 85.29980469 C242.42200579 85.02759445 226.61959224 81.48552011 213 75 C213.0721875 75.67804688 213.144375 76.35609375 213.21875 77.0546875 C213.85113709 83.39612473 214.12438222 89.62886647 214 96 C214.72445313 96.02578125 215.44890625 96.0515625 216.1953125 96.078125 C224.9924186 96.59422189 229.15761936 98.90028998 235.1875 105.3125 C239.29315305 110.10112019 241.52803826 113.93224867 242.5 120.25 C242 123 242 123 239.75 124.8125 C235.77661135 126.52828146 232.33154048 127.13219035 228.015625 127.31640625 C226.61376953 127.37924805 226.61376953 127.37924805 225.18359375 127.44335938 C224.21550781 127.48267578 223.24742187 127.52199219 222.25 127.5625 C221.26644531 127.60568359 220.28289062 127.64886719 219.26953125 127.69335938 C216.84648725 127.79922052 214.4233446 127.90130171 212 128 C211.87882812 128.80824219 211.75765625 129.61648437 211.6328125 130.44921875 C211.46523438 131.51785156 211.29765625 132.58648437 211.125 133.6875 C210.96257812 134.74324219 210.80015625 135.79898438 210.6328125 136.88671875 C210.04106931 139.79794914 209.1968194 142.28955607 208 145 C208.51046875 144.68546875 209.0209375 144.3709375 209.546875 144.046875 C215.78742704 140.37335855 222.05106465 137.99515444 229 136 C229.97839844 135.69835937 230.95679688 135.39671875 231.96484375 135.0859375 C240.03357452 132.95156372 247.93431148 132.65814966 256.25 132.5625 C257.35102051 132.54026367 258.45204102 132.51802734 259.58642578 132.49511719 C267.94547615 132.51778068 275.21653855 133.81845287 281.75 139.3125 C282.4925 140.199375 283.235 141.08625 284 142 C284.77150391 142.80630859 284.77150391 142.80630859 285.55859375 143.62890625 C289.21121249 147.54430331 291.29101337 150.63195835 292 156 C290.88671875 158.19921875 290.88671875 158.19921875 289 160 C286.453125 160.3203125 286.453125 160.3203125 283.25 160.125 C262.55958263 159.56926565 240.77888236 161.81438171 222 171 C221.16082031 171.39445313 220.32164062 171.78890625 219.45703125 172.1953125 C212.40793652 175.75718488 206.19180986 180.38211108 199.83886719 185.03125 C178.5089791 200.62499504 159.38063373 208.26775689 132.6875 208.5 C131.44887207 208.51844971 130.21024414 208.53689941 128.93408203 208.5559082 C110.00485886 208.42880732 93.68320635 200.29138245 77.609375 191.05078125 C54.5249492 178.029357 28.30957795 172.88591924 2.359375 179.66796875 C-7.7402651 182.59380115 -17.08387972 187.34207216 -26.23046875 192.45703125 C-38.36920719 199.21979808 -49.96733771 204.1927064 -64 205 C-64.85464844 205.06445312 -65.70929688 205.12890625 -66.58984375 205.1953125 C-81.59317577 205.81273357 -97.43990175 201.89594964 -108.875 191.875 C-116.23028598 183.72215288 -118.09813088 173.84193589 -117.55859375 163.203125 C-115.98566951 147.29225158 -101.62676902 130.17690814 -90 120 C-86.78540014 118.39270007 -83.47611897 118.38069145 -80 119 C-77.0625 121.4375 -77.0625 121.4375 -75 124 C-74.67 124.33 -74.34 124.66 -74 125 C-72.95280317 132.84539268 -75.52332895 137.76229655 -79.37890625 144.359375 C-83.03464833 151.56670696 -83.47251401 157.93095612 -83.5 165.9375 C-83.50612305 166.94498291 -83.51224609 167.95246582 -83.51855469 168.99047852 C-83.5664339 176.13845178 -83.5664339 176.13845178 -80 182 C-72.14754575 183.61808148 -63.95548755 182.63100929 -57.0234375 178.5546875 C-51.301315 174.15815322 -48.80014872 168.55357363 -47.5703125 161.5546875 C-46.7008436 151.88513946 -51.16078338 144.85206621 -55.94677734 136.82421875 C-57.04702725 134.91854714 -58.03404552 132.97663412 -59 131 C-59.66 131 -60.32 131 -61 131 C-62.4453125 129.53125 -62.4453125 129.53125 -64.125 127.5 C-66.59690996 124.58375911 -69.12572783 121.84329692 -71.875 119.1875 C-76.66824879 114.45940217 -80.83660036 109.28216346 -85 104 C-85.49628906 103.40574219 -85.99257813 102.81148438 -86.50390625 102.19921875 C-90.74499497 96.84135432 -92.82499968 90.41052724 -95 84 C-95.55494141 82.41251953 -95.55494141 82.41251953 -96.12109375 80.79296875 C-98.95769737 68.55144822 -98.59371152 53.3331875 -93 42 C-92.61457031 41.19820312 -92.22914063 40.39640625 -91.83203125 39.5703125 C-89.09246435 34.3039606 -85.65373437 29.65953765 -82 25 C-81.401875 24.13375 -80.80375 23.2675 -80.1875 22.375 C-75.4078004 17.18561187 -68.54291291 12.46314554 -61.39453125 11.734375 C-60.54246094 11.73953125 -59.69039063 11.7446875 -58.8125 11.75 C-57.95269531 11.74484375 -57.09289062 11.7396875 -56.20703125 11.734375 C-54 12 -54 12 -52 14 C-52.09995192 17.49831726 -53.05799179 19.07621779 -55.1875 21.875 C-57.89820521 25.45250049 -59.54639315 29.35335165 -61.1875 33.5 C-61.43717529 34.12890137 -61.68685059 34.75780273 -61.9440918 35.40576172 C-68.1440319 51.46914785 -67.61326677 66.22697869 -61 82 C-60.65453125 82.88429688 -60.3090625 83.76859375 -59.953125 84.6796875 C-57.90562293 89.66418025 -55.18269886 93.66799321 -52 98 C-52 98.66 -52 99.32 -52 100 C-51.34 100 -50.68 100 -50 100 C-50 100.66 -50 101.32 -50 102 C-49.34 102 -48.68 102 -48 102 C-46.73046875 103.29296875 -46.73046875 103.29296875 -45.1875 105.1875 C-39.84581976 111.49522879 -33.87947217 117.20009963 -28 123 C-24.97280859 118.50951365 -23.36700616 113.78866183 -21.6875 108.6875 C-21.38626221 107.77830811 -21.08502441 106.86911621 -20.7746582 105.93237305 C-11.59996077 77.57093621 1.68402291 32.09901218 -11.6875 3.375 C-12.120625 2.59125 -12.55375 1.8075 -13 1 C-10.50777809 -3.98444382 -4.15695738 -1.65422661 0 0 Z M79 49 C70.13931926 58.05758476 64.83044219 72.16241876 61 84 C60.67 84.99 60.34 85.98 60 87 C58.37156101 106.91348255 63.65355885 126.69344653 76.125 142.5 C77.40852992 144.00696839 78.69940323 145.50773634 80 147 C80.93891527 148.18638131 81.87664109 149.37370624 82.8125 150.5625 C84.83417375 153.21963493 84.83417375 153.21963493 88 154 C88 117.37 88 80.74 88 43 C84.89147283 43 81.23460117 47.09170843 79 49 Z M121 45 C121.00222061 45.88392426 121.00444122 46.76784851 121.00672913 47.67855835 C121.18787641 123.29046149 121.18787641 123.29046149 120.5625 148.5 C120.54285187 149.34069031 120.52320374 150.18138062 120.50296021 151.04754639 C120.17872177 164.40950385 120.17872177 164.40950385 119 171 C118.84044751 173.22588808 118.73673352 175.45644402 118.6875 177.6875 C118.65011719 178.80511719 118.61273437 179.92273438 118.57421875 181.07421875 C118.71419695 184.06383769 118.71419695 184.06383769 120.765625 185.7890625 C128.42168629 189.93832648 136.72448811 191.56621434 145.30078125 189.42578125 C149.10332463 188.07233361 152.72125669 186.35659676 156 184 C156 183.34 156 182.68 156 182 C156.99 181.67 157.98 181.34 159 181 C159 180.34 159 179.68 159 179 C159.66 179 160.32 179 161 179 C162.46848032 177.13342465 162.46848032 177.13342465 163.875 174.6875 C164.36742187 173.88699219 164.85984375 173.08648437 165.3671875 172.26171875 C170.12561941 162.75623875 171.59776079 154.81553441 171.375 144.1875 C171.37371094 142.99962891 171.37242187 141.81175781 171.37109375 140.58789062 C171.3142996 134.96211409 171.14962061 130.27435622 169 125 C167.01475334 123.41218543 167.01475334 123.41218543 164.625 122.4375 C160.73122811 120.46557372 158.22609694 118.89566965 156 115 C155.0625 111.375 155.0625 111.375 155 108 C156.87757721 104.9750145 159.72500209 104.15067494 163 103 C159.21430117 89.75005408 152.54108009 77.75543419 144 67 C143.32839844 66.12601563 142.65679688 65.25203125 141.96484375 64.3515625 C136.00766993 56.68487366 136.00766993 56.68487366 129 50 C128.34 50 127.68 50 127 50 C127 49.34 127 48.68 127 48 C125.02 47.01 123.04 46.02 121 45 Z M14 93 C13.68869141 94.80017578 13.68869141 94.80017578 13.37109375 96.63671875 C10.39151674 113.05601912 6.12897375 129.20325678 -1.93359375 143.91796875 C-3.15195862 145.90680663 -3.15195862 145.90680663 -3 148 C-1.83597656 147.84660156 -0.67195312 147.69320312 0.52734375 147.53515625 C7.5157731 146.7586641 14.53944651 146.6408142 21.5625 146.4375 C22.96680703 146.39420824 24.37110406 146.35059096 25.77539062 146.30664062 C29.18350951 146.20123489 32.5916932 146.09911018 36 146 C32.90864677 140.78660537 29.79395501 135.63190567 26.375 130.625 C20.36738655 121.12397256 18.47397503 111.22204803 17.03808594 100.234375 C16.75381667 98.14690516 16.3842946 96.07139011 16 94 C15.34 93.67 14.68 93.34 14 93 Z " fill="#FEFEFE" transform="translate(556,62)"/>
</svg>
